<?xml version="1.0" encoding="UTF-8"?>
<svg id="Calque_4" data-name="Calque 4" xmlns="http://www.w3.org/2000/svg" viewBox="0 0 1024 1024">
  <defs>
    <style>
      .cls-1 {
        fill: #0073f1;
      }

      .cls-2 {
        fill: #0074f2;
      }
    </style>
  </defs>
  <path d="M693.97,423.13v49h52v-47.5l1.5-1.5h19c1.73,0,4.85-.13,5.29,1.63l-1.29,118.37h-24.5v-50h-52v50h-25v-120h25Z"/>
  <path d="M495.97,532.13v43h-25v-120.5l1.5-1.5h22c3.3,3.44.84,8.9.51,13,5.76-6.5,11.61-12.48,20.75-13.74,37.87-5.21,50.03,30.92,42.94,61.94-6.73,29.44-42.15,40.84-62.7,17.8ZM514.78,471.36c-24.66,1.29-25.45,46.65-4.63,52.09,33.22,8.68,34.28-53.64,4.63-52.09Z"/>
  <path d="M903.97,464.63c0,.25-1.9,1.33-.49,1.51h1.47c7.64-15.45,29.26-17.96,43.32-9.8,30.16,17.5,25.56,83.57-11.92,87.67-13.43,1.47-24.17-2.09-32.36-12.88v12h-24.01v-120c3.85.21,8.78.8,12.5.8,3.41,0,8.49-2.69,11.5.7-.34,13.31.46,26.7,0,40ZM922.63,471.51c-10.3.33-17.39,9.56-18.55,19.23-2.09,17.43,2.9,36.66,24.32,33.32,19.84-3.09,21.66-53.44-5.78-52.56Z"/>
  <path d="M275.97,543.13h-23v-10c-18.41,21.43-63.32,11.72-56.69-21.2,5.04-25.03,37.36-20.32,56.26-25.72,3.95-19.82-27.27-21.92-32.07-5.07h-21.5c1.91-34.8,63.07-39.56,74.87-10.37.43,1.07,2.13,5.33,2.13,5.87v66.5ZM252.96,502.14c-9.72,2.54-35.32,2-32.78,17.24,1.81,10.86,16.67,9.01,23.72,4.19,7.07-4.83,9.39-13.24,9.06-21.43Z"/>
  <path d="M372.97,543.13h-25v-58.5c0-1.54-3.52-7.57-5.06-8.94-7.21-6.44-20.92-4.17-26.19,3.7-.61.92-2.76,4.63-2.76,5.24v58.5h-24v-90h23.01s0,11,0,11c13.94-17.91,47.82-16.52,57.18,5.31.68,1.58,2.81,8.01,2.81,9.19v64.5Z"/>
  <path d="M844.47,543.13l-1.26-1.46.75-10.54c-9.17,9.64-17.78,14.15-31.53,13.03-14.9-1.21-27.46-14.41-27.46-29.54v-60l1.5-1.5h20c1,0,2.87.56,3.5,1.5v58c0,1.83,6.19,8.91,8.26,9.74,7.78,3.15,20.65-.65,23.29-9.19.23-.73,1.45-7.17,1.45-7.55v-50c0-.35-1.77-1.11.5-2.5h22l1.5,1.5v87l-1.5,1.5h-21Z"/>
  <path d="M100.97,445.13v98h-24.5l-1.5-1.5v-96.5h-35v-22l95.52.03c2.45,1.53.48,2.1.48,2.47v17c0,.35,1.77,1.11-.5,2.5h-34.5Z"/>
  <path d="M405.97,516.13c.94,16.26,37.37,13.29,30.48-1.99-2.45-5.43-27.82-8.6-34.74-11.25-13.81-5.3-21.2-17.01-16.21-31.73,9.45-27.89,74.05-26.49,73.46,8.97-3.4-2.67-19.29.61-21.03-.53-1.64-1.08-2-5.33-4.6-7.34-7.54-5.83-29.14-3.75-25.18,9.17,1.76,5.73,31.86,9.66,39.09,12.91,19.31,8.7,16.85,36.26-.96,45.6-10.21,5.36-28.48,5.4-39.52,2.88-13.82-3.16-22.81-12.67-24.8-26.7h24Z"/>
  <path d="M192.97,476.13c-9.05-3.76-22.18-3.6-27.83,5.67-.99,1.63-3.17,7.31-3.17,8.83v52.5h-24v-90h22v12.99c2.27-1.66,3.71-5.02,5.78-7,7.11-6.78,18.39-10.03,27.22-4.5v21.5Z"/>
  <g>
    <path class="cls-1" d="M608.94,542.86c-9.39-9.27-20.32-19.19-29-28.94-24.2-27.16-7.37-70.84,28.55-74.61,42.1-4.41,66.62,44.07,37.98,75.71-9.57,10.57-21.04,19.98-30.76,30.49-3.09,1.59-4.79-.7-6.77-2.65ZM613.18,533.72c.17.14.27.76.58.53,9.2-9.5,19.03-18.42,27.79-28.32,15.07-19.27,6.79-47.6-16.57-55.17-26.86-8.71-53.33,15.42-45.45,43,2.26,7.89,6.7,12.94,12.17,18.69,6.35,6.67,14.54,15.49,21.48,21.28Z"/>
    <path class="cls-2" d="M636.06,471.63c2.19.07,5.03-.61,5.38,2.33.18,1.51.21,6.38-.02,7.83-.44,2.79-5.14,1.37-5.38,1.61.22,1.45-.2,2.92-.25,4.28-.18,4.32.34,9,.02,13.25-.23,3.08-1.21,6.22-4.63,6.76,1.19,7.23-8.82,6.96-7.88-.03h-18.99c-.95.17-.47,2.21-1.05,3.36-1.45,2.82-6.68,2.42-7.34-.84-.14-.69.11-2.15-.16-2.53-.13-.18-1.32-.41-1.78-.67-3.09-1.7-2.39-7.77-2.51-10.72-.02-.58-.25-1.12-.27-1.69-.11-3.71.1-7.45,0-11.16-.21-.2-4.39,1.15-5.2-1.29-.37-1.13-.35-6.51-.2-7.89.36-3.25,2.87-2.52,5.39-2.57.33-2.07-.05-4.24.8-6.18.77-1.77,3.02-3.4,4.96-3.62l33.5.06c2.4.55,4.22,1.66,4.96,4.11.56,1.85.22,3.74.63,5.62ZM598.26,470.24c-1.81.36-2.45,1.49-2.63,3.25-.33,3.34-.29,10.09,0,13.47.16,1.87.6,3.34,2.81,3.33,10.09-.02,20.29-.02,30.38,0,1.94,0,2.67-1.31,2.83-3.07.29-3.33.36-10.71,0-13.98-.52-4.6-6.26-2.85-9.42-2.81-7.99.11-15.98-.11-23.96-.2ZM603.62,501.7c1.9-2.06,1.17-6.06-1.77-6.51-2.22-.34-4.43.05-5.18,2.38-1.54,4.76,4.15,7.17,6.95,4.13ZM629.84,496.23c-.45-.45-1.6-.99-2.24-1.07-7.25-.92-6.27,8.87.18,7.79,2.99-.5,4.16-4.61,2.06-6.72Z"/>
  </g>
</svg>