<?xml version="1.0" encoding="UTF-8"?>
<svg id="Calque_3" data-name="Calque 3" xmlns="http://www.w3.org/2000/svg" viewBox="0 0 1024 1024">
  <defs>
    <style>
      .cls-1 {
        fill: #0073f1;
      }

      .cls-2 {
        fill: #0074f2;
      }
    </style>
  </defs>
  <path class="cls-1" d="M477.23,791.49c-38.35-37.85-82.93-78.33-118.38-118.12-98.76-110.86-30.09-289.15,116.54-304.51,171.82-18,271.9,179.88,155,309-39.08,43.16-85.87,81.56-125.55,124.45-12.61,6.48-19.54-2.85-27.61-10.81ZM494.53,754.21c.71.59,1.11,3.1,2.35,2.15,37.55-38.76,77.68-75.18,113.41-115.6,61.51-78.63,27.73-194.29-67.63-225.2-109.62-35.54-217.68,62.92-185.5,175.5,9.21,32.21,27.33,52.83,49.67,76.3,25.91,27.23,59.33,63.24,87.69,86.85Z"/>
  <path class="cls-2" d="M587.93,500.79c8.96.29,20.54-2.48,21.97,9.53.73,6.16.84,26.04-.08,31.96-1.78,11.4-20.96,5.59-21.94,6.55.88,5.9-.81,11.9-1.04,17.46-.73,17.61,1.4,36.74.08,54.08-.96,12.57-4.95,25.4-18.9,27.61,4.85,29.52-36.01,28.39-32.15-.14h-77.49c-3.88.71-1.9,9.04-4.3,13.7-5.93,11.51-27.25,9.88-29.97-3.43-.57-2.8.46-8.76-.67-10.33-.54-.75-5.37-1.68-7.27-2.73-12.59-6.94-9.77-31.7-10.25-43.75-.09-2.37-1.02-4.55-1.08-6.92-.43-15.15.41-30.4.04-45.54-.85-.83-17.94,4.68-21.21-5.28-1.51-4.6-1.43-26.57-.8-32.22,1.48-13.28,11.7-10.27,22.01-10.49,1.35-8.44-.19-17.29,3.26-25.24,3.13-7.21,12.33-13.87,20.23-14.77l136.74.26c9.81,2.24,17.21,6.78,20.23,16.77,2.28,7.54.91,15.26,2.58,22.92ZM433.62,495.08c-7.39,1.46-10.01,6.09-10.73,13.27-1.36,13.64-1.2,41.2,0,54.97.67,7.63,2.45,13.62,11.49,13.59,41.18-.1,82.8-.1,123.99,0,7.91.02,10.91-5.36,11.54-12.54,1.2-13.58,1.45-43.73-.04-57.04-2.1-18.76-25.55-11.63-38.46-11.45-32.61.46-65.23-.47-97.81-.81ZM455.53,623.5c7.76-8.4,4.79-24.73-7.21-26.59-9.07-1.4-18.06.2-21.15,9.72-6.3,19.41,16.93,29.25,28.37,16.87ZM562.54,601.18c-1.83-1.83-6.54-4.03-9.14-4.36-29.6-3.74-25.59,36.2.74,31.78,12.19-2.05,16.96-18.82,8.4-27.42Z"/>
</svg>